<svg width="650.1px" height="122px" xmlns="http://www.w3.org/2000/svg" viewBox="-75.02812499999999 14 650.05625 122" style="background: rgba(0, 0, 0, 0)" preserveAspectRatio="xMidYMid"><defs><linearGradient id="editing-gradient-gradient" x1="0" x2="1" y1="0.5" y2="0.5" gradientUnits="objectBoundingBox"><stop offset="0" stop-color="#ff00ff"></stop><stop offset="1" stop-color="#00ffff"></stop></linearGradient></defs><g><g transform="matrix(1.4,0,0,1.5,-53,180)"><path d="M 7.2 -57.3 L 7.2 -57.3 L 7.2 -57.3 Q 5.2 -52.5 -1.1 -52.5 L -1.1 -52.5 L -1.1 -52.5 Q -4.4 -52.5 -6.4 -54.8 L -6.4 -54.8 L -6.4 -54.8 Q -8.2 -56.7 -8.2 -58.7 L -8.2 -58.7 L -8.2 -58.7 Q -8.2 -63.9 -5.8 -74 L -5.8 -74 L -3.4 -86.4 L 9.6 -87.7 L 5.7 -67.5 L 5.7 -67.5 Q 4.6 -62.8 4.6 -61.1 L 4.6 -61.1 L 4.6 -61.1 Q 4.6 -57.4 7.2 -57.3 Z M -2.3 -95.3 L -2.3 -95.3 L -2.3 -95.3 Q -2.3 -97.8 -0.2 -99.2 L -0.2 -99.2 L -0.2 -99.2 Q 1.9 -100.5 4.9 -100.5 L 4.9 -100.5 L 4.9 -100.5 Q 7.9 -100.5 9.7 -99.2 L 9.7 -99.2 L 9.7 -99.2 Q 11.5 -97.8 11.5 -95.3 L 11.5 -95.3 L 11.5 -95.3 Q 11.5 -92.8 9.5 -91.6 L 9.5 -91.6 L 9.5 -91.6 Q 7.5 -90.3 4.5 -90.3 L 4.5 -90.3 L 4.5 -90.3 Q 1.5 -90.3 -0.4 -91.6 L -0.4 -91.6 L -0.4 -91.6 Q -2.3 -92.8 -2.3 -95.3 Z M 58.7 -52.5 L 58.7 -52.5 L 58.7 -52.5 Q 51 -52.5 51 -58.5 L 51 -58.5 L 51 -58.5 Q 51 -61.2 52.1 -66.2 L 52.1 -66.2 L 52.1 -66.2 Q 53.2 -71.3 53.6 -73.4 L 53.6 -73.4 L 53.6 -73.4 Q 54.5 -78.1 54.5 -79.5 L 54.5 -79.5 L 54.5 -79.5 Q 54.5 -82.8 52.1 -82.8 L 52.1 -82.8 L 52.1 -82.8 Q 50.5 -82.8 48.9 -80.6 L 48.9 -80.6 L 48.9 -80.6 Q 47.4 -78.4 46.7 -74 L 46.7 -74 L 42.7 -53.8 L 30.2 -52.5 L 33.7 -69.9 L 33.7 -69.9 Q 34.3 -72.8 34.8 -76.1 L 34.8 -76.1 L 34.8 -76.1 Q 35.3 -79.3 35.3 -79.8 L 35.3 -79.8 L 35.3 -79.8 Q 35.3 -82.8 33.1 -82.8 L 33.1 -82.8 L 33.1 -82.8 Q 31.6 -82.8 30 -80.6 L 30 -80.6 L 30 -80.6 Q 28.4 -78.4 27.5 -74 L 27.5 -74 L 23.6 -53.8 L 11 -52.5 L 17.8 -86.4 L 28.2 -87.7 L 27.1 -81.3 L 27.1 -81.3 Q 28.8 -84.7 31.8 -86.2 L 31.8 -86.2 L 31.8 -86.2 Q 34.9 -87.7 39.7 -87.7 L 39.7 -87.7 L 39.7 -87.7 Q 42.5 -87.7 44.2 -86.4 L 44.2 -86.4 L 44.2 -86.4 Q 46 -85 46.6 -82.9 L 46.6 -82.9 L 46.6 -82.9 Q 47.7 -85.1 50.5 -86.4 L 50.5 -86.4 L 50.5 -86.4 Q 53.3 -87.7 56.7 -87.7 L 56.7 -87.7 L 56.7 -87.7 Q 60.1 -87.7 61.8 -87 L 61.8 -87 L 61.8 -87 Q 63.5 -86.2 64.5 -85 L 64.5 -85 L 64.5 -85 Q 66.3 -82.8 66.3 -78.7 L 66.3 -78.7 L 66.3 -78.7 Q 66.3 -74.7 64.5 -66.3 L 64.5 -66.3 L 64.5 -66.3 Q 63.6 -62.2 63.6 -60.7 L 63.6 -60.7 L 63.6 -60.7 Q 63.6 -59.2 64.5 -58.3 L 64.5 -58.3 L 64.5 -58.3 Q 65.4 -57.4 66.6 -57.3 L 66.6 -57.3 L 66.6 -57.3 Q 66 -55.1 63.8 -53.8 L 63.8 -53.8 L 63.8 -53.8 Q 61.6 -52.5 58.7 -52.5 Z M 74.4 -55.7 L 74.4 -55.7 L 74.4 -55.7 Q 72.9 -57.4 72.2 -60 L 72.2 -60 L 72.2 -60 Q 71.5 -62.6 71.5 -66.9 L 71.5 -66.9 L 71.5 -66.9 Q 71.5 -71.2 73 -75.1 L 73 -75.1 L 73 -75.1 Q 74.5 -79 77.1 -81.8 L 77.1 -81.8 L 77.1 -81.8 Q 82.6 -87.7 91.7 -87.7 L 91.7 -87.7 L 91.7 -87.7 Q 95 -87.7 97.4 -86.6 L 97.4 -86.6 L 108.3 -87.7 L 103.6 -62.8 L 103.6 -62.8 Q 103.4 -62 103.4 -60.6 L 103.4 -60.6 L 103.4 -60.6 Q 103.4 -59.2 104.2 -58.3 L 104.2 -58.3 L 104.2 -58.3 Q 105.1 -57.4 106.4 -57.3 L 106.4 -57.3 L 106.4 -57.3 Q 105.8 -55.1 103.4 -53.8 L 103.4 -53.8 L 103.4 -53.8 Q 101.1 -52.5 98.5 -52.5 L 98.5 -52.5 L 98.5 -52.5 Q 95.8 -52.5 94.1 -53.5 L 94.1 -53.5 L 94.1 -53.5 Q 92.3 -54.5 91.8 -56.2 L 91.8 -56.2 L 91.8 -56.2 Q 90.8 -54.6 88.6 -53.5 L 88.6 -53.5 L 88.6 -53.5 Q 86.4 -52.5 83.5 -52.5 L 83.5 -52.5 L 83.5 -52.5 Q 80.6 -52.5 78.2 -53.3 L 78.2 -53.3 L 78.2 -53.3 Q 75.9 -54.1 74.4 -55.7 Z M 87.9 -81.7 L 87.9 -81.7 L 87.9 -81.7 Q 87.1 -80.5 86.5 -78.6 L 86.5 -78.6 L 86.5 -78.6 Q 85.8 -76.6 84.8 -71.4 L 84.8 -71.4 L 84.8 -71.4 Q 83.7 -66.2 83.7 -62.5 L 83.7 -62.5 L 83.7 -62.5 Q 83.7 -58.8 84.3 -57.7 L 84.3 -57.7 L 84.3 -57.7 Q 84.9 -56.6 85.9 -56.6 L 85.9 -56.6 L 85.9 -56.6 Q 88 -56.6 89.5 -58.6 L 89.5 -58.6 L 89.5 -58.6 Q 91 -60.5 91.5 -64 L 91.5 -64 L 94.9 -82.7 L 94.9 -82.7 Q 93.6 -83.9 92 -83.9 L 92 -83.9 L 92 -83.9 Q 90.5 -83.9 89.5 -83.4 L 89.5 -83.4 L 89.5 -83.4 Q 88.6 -82.9 87.9 -81.7 Z M 116.1 -80.5 L 116.1 -80.5 L 116.1 -80.5 Q 118.2 -83.6 121.5 -85.7 L 121.5 -85.7 L 121.5 -85.7 Q 124.8 -87.7 128.9 -87.7 L 128.9 -87.7 L 128.9 -87.7 Q 132.9 -87.7 134.8 -86.4 L 134.8 -86.4 L 147.4 -87.7 L 143 -63.1 L 143 -63.1 Q 140.8 -50.6 136 -45.7 L 136 -45.7 L 136 -45.7 Q 131.5 -41 122.6 -41 L 122.6 -41 L 122.6 -41 Q 115.9 -41 112.1 -43.1 L 112.1 -43.1 L 112.1 -43.1 Q 108.2 -45.2 108.2 -48.7 L 108.2 -48.7 L 108.2 -48.7 Q 108.2 -51.4 110.2 -52.9 L 110.2 -52.9 L 110.2 -52.9 Q 112.2 -54.4 115.3 -54.4 L 115.3 -54.4 L 115.3 -54.4 Q 118 -54.4 120 -53.2 L 120 -53.2 L 120 -53.2 Q 121.2 -52.5 121.8 -51.6 L 121.8 -51.6 L 121.8 -51.6 Q 120.3 -50.3 120.3 -48.2 L 120.3 -48.2 L 120.3 -48.2 Q 120.3 -45.5 122.9 -45.5 L 122.9 -45.5 L 122.9 -45.5 Q 127.2 -45.5 129.6 -55.6 L 129.6 -55.6 L 129.6 -55.6 Q 130.3 -58.3 130.9 -61.1 L 130.9 -61.1 L 130.9 -61.1 Q 128 -57.6 121.5 -57.6 L 121.5 -57.6 L 121.5 -57.6 Q 117 -57.6 114.3 -59.7 L 114.3 -59.7 L 114.3 -59.7 Q 111.7 -61.9 111.7 -67 L 111.7 -67 L 111.7 -67 Q 111.7 -70.2 112.8 -73.9 L 112.8 -73.9 L 112.8 -73.9 Q 113.9 -77.5 116.1 -80.5 Z M 124.4 -66.9 L 124.4 -66.9 L 124.4 -66.9 Q 124.4 -62.5 126.6 -62.5 L 126.6 -62.5 L 126.6 -62.5 Q 128.2 -62.5 129.6 -64.2 L 129.6 -64.2 L 129.6 -64.2 Q 130.8 -65.5 131.2 -67.5 L 131.2 -67.5 L 134.5 -83.9 L 134.5 -83.9 Q 134.2 -84 133.8 -84.1 L 133.8 -84.1 L 133.8 -84.1 Q 133.2 -84.4 132.4 -84.4 L 132.4 -84.4 L 132.4 -84.4 Q 128.5 -84.4 126.2 -78 L 126.2 -78 L 126.2 -78 Q 124.4 -73 124.4 -66.9 Z M 175.8 -64.6 L 175.8 -64.6 L 175.8 -64.6 Q 177.4 -63.5 177.4 -61.1 L 177.4 -61.1 L 177.4 -61.1 Q 177.4 -58.7 176.2 -57.2 L 176.2 -57.2 L 176.2 -57.2 Q 174.9 -55.7 173 -54.6 L 173 -54.6 L 173 -54.6 Q 168.9 -52.5 164.4 -52.5 L 164.4 -52.5 L 164.4 -52.5 Q 160 -52.5 157.4 -53.5 L 157.4 -53.5 L 157.4 -53.5 Q 154.8 -54.4 153.1 -56.2 L 153.1 -56.2 L 153.1 -56.2 Q 149.7 -59.6 149.7 -65.8 L 149.7 -65.8 L 149.7 -65.8 Q 149.7 -75.5 155 -81.4 L 155 -81.4 L 155 -81.4 Q 160.6 -87.7 170.4 -87.7 L 170.4 -87.7 L 170.4 -87.7 Q 176.5 -87.7 179.5 -85.2 L 179.5 -85.2 L 179.5 -85.2 Q 181.7 -83.2 181.7 -80.1 L 181.7 -80.1 L 181.7 -80.1 Q 181.7 -68.8 162.3 -68.8 L 162.3 -68.8 L 162.3 -68.8 Q 162 -67.2 162 -65.8 L 162 -65.8 L 162 -65.8 Q 162 -62.8 163.3 -61.7 L 163.3 -61.7 L 163.3 -61.7 Q 164.6 -60.6 167.1 -60.6 L 167.1 -60.6 L 167.1 -60.6 Q 169.5 -60.6 172.1 -61.7 L 172.1 -61.7 L 172.1 -61.7 Q 174.7 -62.8 175.8 -64.6 Z M 162.7 -71.6 L 162.7 -71.6 L 162.7 -71.6 Q 167.3 -71.6 169.9 -74.4 L 169.9 -74.4 L 169.9 -74.4 Q 172.5 -77.1 172.5 -81.4 L 172.5 -81.4 L 172.5 -81.4 Q 172.5 -82.9 172 -83.7 L 172 -83.7 L 172 -83.7 Q 171.4 -84.5 170.3 -84.5 L 170.3 -84.5 L 170.3 -84.5 Q 169.2 -84.5 168.3 -84 L 168.3 -84 L 168.3 -84 Q 167.4 -83.6 166.4 -82.2 L 166.4 -82.2 L 166.4 -82.2 Q 164.1 -79 162.7 -71.6 Z M 203 -76.3 L 203 -76.3 L 203 -76.3 Q 203.9 -78.6 203.9 -80.7 L 203.9 -80.7 L 203.9 -80.7 Q 203.9 -84.5 200.9 -84.5 L 200.9 -84.5 L 200.9 -84.5 Q 199.3 -84.5 197.9 -83 L 197.9 -83 L 197.9 -83 Q 196.6 -81.6 196.6 -79.8 L 196.6 -79.8 L 196.6 -79.8 Q 196.6 -78.5 197.7 -77.5 L 197.7 -77.5 L 197.7 -77.5 Q 199.1 -76.1 202.9 -73.8 L 202.9 -73.8 L 202.9 -73.8 Q 206.7 -71.5 208.1 -69.6 L 208.1 -69.6 L 208.1 -69.6 Q 209.6 -67.7 209.6 -65.1 L 209.6 -65.1 L 209.6 -65.1 Q 209.6 -62.5 208.3 -60.1 L 208.3 -60.1 L 208.3 -60.1 Q 207.1 -57.8 204.8 -56.1 L 204.8 -56.1 L 204.8 -56.1 Q 200 -52.5 192.3 -52.5 L 192.3 -52.5 L 192.3 -52.5 Q 188.2 -52.5 185 -54.7 L 185 -54.7 L 185 -54.7 Q 181.8 -56.8 181.8 -59.3 L 181.8 -59.3 L 181.8 -59.3 Q 181.8 -61.8 183.6 -63.3 L 183.6 -63.3 L 183.6 -63.3 Q 185.4 -64.7 188.1 -64.7 L 188.1 -64.7 L 188.1 -64.7 Q 190.8 -64.7 192.5 -63.7 L 192.5 -63.7 L 192.5 -63.7 Q 191.6 -61.6 191.6 -60.2 L 191.6 -60.2 L 191.6 -60.2 Q 191.6 -56 195.2 -56 L 195.2 -56 L 195.2 -56 Q 196.8 -56 197.8 -56.9 L 197.8 -56.9 L 197.8 -56.9 Q 198.8 -57.9 198.8 -59.6 L 198.8 -59.6 L 198.8 -59.6 Q 198.8 -62.8 193.3 -66.3 L 193.3 -66.3 L 193.3 -66.3 Q 188.8 -69.2 187.8 -70.4 L 187.8 -70.4 L 187.8 -70.4 Q 186.1 -72.4 186.1 -75 L 186.1 -75 L 186.1 -75 Q 186.1 -77.5 187.3 -80 L 187.3 -80 L 187.3 -80 Q 188.5 -82.4 190.7 -84.1 L 190.7 -84.1 L 190.7 -84.1 Q 195.4 -87.7 203.5 -87.7 L 203.5 -87.7 L 203.5 -87.7 Q 207.7 -87.7 210.2 -86.1 L 210.2 -86.1 L 210.2 -86.1 Q 212.6 -84.4 212.6 -81.6 L 212.6 -81.6 L 212.6 -81.6 Q 212.6 -78.8 210.9 -77.2 L 210.9 -77.2 L 210.9 -77.2 Q 209.2 -75.6 206.2 -75.6 L 206.2 -75.6 L 206.2 -75.6 Q 204.1 -75.6 203 -76.3 Z M 232.7 -80.5 L 232.7 -80.5 L 232.7 -80.5 Q 234.9 -83.6 238.2 -85.7 L 238.2 -85.7 L 238.2 -85.7 Q 241.5 -87.7 245.5 -87.7 L 245.5 -87.7 L 245.5 -87.7 Q 249.6 -87.7 251.5 -86.4 L 251.5 -86.4 L 264 -87.7 L 259.7 -63.1 L 259.7 -63.1 Q 257.4 -50.6 252.7 -45.7 L 252.7 -45.7 L 252.7 -45.7 Q 248.2 -41 239.3 -41 L 239.3 -41 L 239.3 -41 Q 232.6 -41 228.8 -43.1 L 228.8 -43.1 L 228.8 -43.1 Q 224.9 -45.2 224.9 -48.7 L 224.9 -48.7 L 224.9 -48.7 Q 224.9 -51.4 226.9 -52.9 L 226.9 -52.9 L 226.9 -52.9 Q 228.9 -54.4 232 -54.4 L 232 -54.4 L 232 -54.4 Q 234.6 -54.4 236.7 -53.2 L 236.7 -53.2 L 236.7 -53.2 Q 237.9 -52.5 238.5 -51.6 L 238.5 -51.6 L 238.5 -51.6 Q 237 -50.3 237 -48.2 L 237 -48.2 L 237 -48.2 Q 237 -45.5 239.6 -45.5 L 239.6 -45.5 L 239.6 -45.5 Q 243.9 -45.5 246.3 -55.6 L 246.3 -55.6 L 246.3 -55.6 Q 247 -58.3 247.6 -61.1 L 247.6 -61.1 L 247.6 -61.1 Q 244.7 -57.6 238.2 -57.6 L 238.2 -57.6 L 238.2 -57.6 Q 233.6 -57.6 231 -59.7 L 231 -59.7 L 231 -59.7 Q 228.4 -61.9 228.4 -67 L 228.4 -67 L 228.4 -67 Q 228.4 -70.2 229.5 -73.9 L 229.5 -73.9 L 229.5 -73.9 Q 230.6 -77.5 232.7 -80.5 Z M 241 -66.9 L 241 -66.9 L 241 -66.9 Q 241 -62.5 243.3 -62.5 L 243.3 -62.5 L 243.3 -62.5 Q 244.8 -62.5 246.3 -64.2 L 246.3 -64.2 L 246.3 -64.2 Q 247.4 -65.5 247.9 -67.5 L 247.9 -67.5 L 251.2 -83.9 L 251.2 -83.9 Q 250.8 -84 250.5 -84.1 L 250.5 -84.1 L 250.5 -84.1 Q 249.9 -84.4 249 -84.4 L 249 -84.4 L 249 -84.4 Q 245.1 -84.4 242.8 -78 L 242.8 -78 L 242.8 -78 Q 241 -73 241 -66.9 Z M 269.3 -55.7 L 269.3 -55.7 L 269.3 -55.7 Q 267.8 -57.4 267.1 -60 L 267.1 -60 L 267.1 -60 Q 266.5 -62.6 266.5 -66.9 L 266.5 -66.9 L 266.5 -66.9 Q 266.5 -71.2 267.9 -75.1 L 267.9 -75.1 L 267.9 -75.1 Q 269.4 -79 272.1 -81.8 L 272.1 -81.8 L 272.1 -81.8 Q 277.6 -87.7 286.7 -87.7 L 286.7 -87.7 L 286.7 -87.7 Q 289.9 -87.7 292.3 -86.6 L 292.3 -86.6 L 303.3 -87.7 L 298.5 -62.8 L 298.5 -62.8 Q 298.3 -62 298.3 -60.6 L 298.3 -60.6 L 298.3 -60.6 Q 298.3 -59.2 299.2 -58.3 L 299.2 -58.3 L 299.2 -58.3 Q 300.1 -57.4 301.3 -57.3 L 301.3 -57.3 L 301.3 -57.3 Q 300.7 -55.1 298.4 -53.8 L 298.4 -53.8 L 298.4 -53.8 Q 296 -52.5 293.4 -52.5 L 293.4 -52.5 L 293.4 -52.5 Q 290.8 -52.5 289 -53.5 L 289 -53.5 L 289 -53.5 Q 287.3 -54.5 286.7 -56.2 L 286.7 -56.2 L 286.7 -56.2 Q 285.7 -54.6 283.5 -53.5 L 283.5 -53.5 L 283.5 -53.5 Q 281.4 -52.5 278.5 -52.5 L 278.5 -52.5 L 278.5 -52.5 Q 275.5 -52.5 273.2 -53.3 L 273.2 -53.3 L 273.2 -53.3 Q 270.8 -54.1 269.3 -55.7 Z M 282.8 -81.7 L 282.8 -81.7 L 282.8 -81.7 Q 282.1 -80.5 281.4 -78.6 L 281.4 -78.6 L 281.4 -78.6 Q 280.8 -76.6 279.7 -71.4 L 279.7 -71.4 L 279.7 -71.4 Q 278.7 -66.2 278.7 -62.5 L 278.7 -62.5 L 278.7 -62.5 Q 278.7 -58.8 279.3 -57.7 L 279.3 -57.7 L 279.3 -57.7 Q 279.8 -56.6 280.9 -56.6 L 280.9 -56.6 L 280.9 -56.6 Q 282.9 -56.6 284.4 -58.6 L 284.4 -58.6 L 284.4 -58.6 Q 285.9 -60.5 286.5 -64 L 286.5 -64 L 289.9 -82.7 L 289.9 -82.7 Q 288.5 -83.9 287 -83.9 L 287 -83.9 L 287 -83.9 Q 285.4 -83.9 284.5 -83.4 L 284.5 -83.4 L 284.5 -83.4 Q 283.5 -82.9 282.8 -81.7 Z M 322 -57.3 L 322 -57.3 L 322 -57.3 Q 320 -52.5 313.7 -52.5 L 313.7 -52.5 L 313.7 -52.5 Q 310.5 -52.5 308.4 -54.8 L 308.4 -54.8 L 308.4 -54.8 Q 306.8 -56.6 306.8 -58.7 L 306.8 -58.7 L 306.8 -58.7 Q 306.8 -63.5 309 -74 L 309 -74 L 313.7 -98.6 L 326.7 -99.9 L 320.5 -67.5 L 320.5 -67.5 Q 319.4 -62.8 319.4 -61.1 L 319.4 -61.1 L 319.4 -61.1 Q 319.4 -57.4 322 -57.3 Z M 342.7 -57.3 L 342.7 -57.3 L 342.7 -57.3 Q 340.8 -52.5 334.4 -52.5 L 334.4 -52.5 L 334.4 -52.5 Q 331.2 -52.5 329.2 -54.8 L 329.2 -54.8 L 329.2 -54.8 Q 327.5 -56.6 327.5 -58.7 L 327.5 -58.7 L 327.5 -58.7 Q 327.5 -63.5 329.8 -74 L 329.8 -74 L 334.4 -98.6 L 347.4 -99.9 L 341.2 -67.5 L 341.2 -67.5 Q 340.1 -62.8 340.1 -61.1 L 340.1 -61.1 L 340.1 -61.1 Q 340.1 -57.4 342.7 -57.3 Z M 374.1 -64.6 L 374.1 -64.6 L 374.1 -64.6 Q 375.7 -63.5 375.7 -61.1 L 375.7 -61.1 L 375.7 -61.1 Q 375.7 -58.7 374.5 -57.2 L 374.5 -57.2 L 374.5 -57.2 Q 373.3 -55.7 371.3 -54.6 L 371.3 -54.6 L 371.3 -54.6 Q 367.2 -52.5 362.8 -52.5 L 362.8 -52.5 L 362.8 -52.5 Q 358.4 -52.5 355.8 -53.5 L 355.8 -53.5 L 355.8 -53.5 Q 353.2 -54.4 351.4 -56.2 L 351.4 -56.2 L 351.4 -56.2 Q 348.1 -59.6 348.1 -65.8 L 348.1 -65.8 L 348.1 -65.8 Q 348.1 -75.5 353.3 -81.4 L 353.3 -81.4 L 353.3 -81.4 Q 358.9 -87.7 368.7 -87.7 L 368.7 -87.7 L 368.7 -87.7 Q 374.8 -87.7 377.8 -85.2 L 377.8 -85.2 L 377.8 -85.2 Q 380.1 -83.2 380.1 -80.1 L 380.1 -80.1 L 380.1 -80.1 Q 380.1 -68.8 360.6 -68.8 L 360.6 -68.8 L 360.6 -68.8 Q 360.3 -67.2 360.3 -65.8 L 360.3 -65.8 L 360.3 -65.8 Q 360.3 -62.8 361.7 -61.7 L 361.7 -61.7 L 361.7 -61.7 Q 363 -60.6 365.4 -60.6 L 365.4 -60.6 L 365.4 -60.6 Q 367.8 -60.6 370.4 -61.7 L 370.4 -61.7 L 370.4 -61.7 Q 373 -62.8 374.1 -64.6 Z M 361 -71.6 L 361 -71.6 L 361 -71.6 Q 365.6 -71.6 368.2 -74.4 L 368.2 -74.4 L 368.2 -74.4 Q 370.8 -77.1 370.8 -81.4 L 370.8 -81.4 L 370.8 -81.4 Q 370.8 -82.9 370.3 -83.7 L 370.3 -83.7 L 370.3 -83.7 Q 369.8 -84.5 368.7 -84.5 L 368.7 -84.5 L 368.7 -84.5 Q 367.6 -84.5 366.6 -84 L 366.6 -84 L 366.6 -84 Q 365.7 -83.6 364.8 -82.2 L 364.8 -82.2 L 364.8 -82.2 Q 362.4 -79 361 -71.6 Z M 402.3 -71.8 L 402.3 -71.8 L 402.3 -71.8 Q 404.6 -75.9 404.6 -80 L 404.6 -80 L 404.6 -80 Q 404.6 -82.8 402.6 -82.8 L 402.6 -82.8 L 402.6 -82.8 Q 401 -82.8 399.4 -80.2 L 399.4 -80.2 L 399.4 -80.2 Q 397.8 -77.5 397.3 -74.1 L 397.3 -74.1 L 393.9 -53.8 L 380.7 -52.5 L 387.2 -86.4 L 397.8 -87.7 L 396.6 -81.3 L 396.6 -81.3 Q 399.8 -87.7 406.8 -87.7 L 406.8 -87.7 L 406.8 -87.7 Q 410.5 -87.7 412.5 -85.8 L 412.5 -85.8 L 412.5 -85.8 Q 414.6 -83.9 414.6 -79.9 L 414.6 -79.9 L 414.6 -79.9 Q 414.6 -76 412 -73.5 L 412 -73.5 L 412 -73.5 Q 409.4 -71 405 -71 L 405 -71 L 405 -71 Q 403 -71 402.3 -71.8 Z M 435.9 -61 L 435.9 -61 L 435.9 -61 Q 432.6 -57.6 426.5 -57.6 L 426.5 -57.6 L 426.5 -57.6 Q 418.9 -57.6 417.3 -63.1 L 417.3 -63.1 L 417.3 -63.1 Q 416.8 -64.8 416.8 -66.7 L 416.8 -66.7 L 416.8 -66.7 Q 416.8 -68.5 417.2 -70.4 L 417.2 -70.4 L 420.2 -86.4 L 433.2 -87.7 L 429.7 -69.1 L 429.7 -69.1 Q 429.5 -68.3 429.3 -67.4 L 429.3 -67.4 L 429.3 -67.4 Q 429.1 -66.5 429.1 -65.5 L 429.1 -65.5 L 429.1 -65.5 Q 429.1 -64.6 429.5 -64 L 429.5 -64 L 429.5 -64 Q 429.8 -63.4 430.2 -63 L 430.2 -63 L 430.2 -63 Q 431 -62.5 432.4 -62.5 L 432.4 -62.5 L 432.4 -62.5 Q 433.8 -62.5 434.9 -64.2 L 434.9 -64.2 L 434.9 -64.2 Q 436.1 -65.8 436.7 -68.7 L 436.7 -68.7 L 440.2 -86.4 L 452.8 -87.7 L 448 -62.6 L 448 -62.6 Q 445.7 -50.3 440.8 -45.4 L 440.8 -45.4 L 440.8 -45.4 Q 438.3 -42.9 435.1 -41.9 L 435.1 -41.9 L 435.1 -41.9 Q 431.8 -40.9 427.7 -40.9 L 427.7 -40.9 L 427.7 -40.9 Q 421 -40.9 417.1 -43 L 417.1 -43 L 417.1 -43 Q 413.3 -45.2 413.3 -48.7 L 413.3 -48.7 L 413.3 -48.7 Q 413.3 -51.3 415.3 -52.8 L 415.3 -52.8 L 415.3 -52.8 Q 417.2 -54.3 420.3 -54.3 L 420.3 -54.3 L 420.3 -54.3 Q 423 -54.3 425 -53.2 L 425 -53.2 L 425 -53.2 Q 426.3 -52.5 426.8 -51.6 L 426.8 -51.6 L 426.8 -51.6 Q 425.4 -50.3 425.4 -48.2 L 425.4 -48.2 L 425.4 -48.2 Q 425.4 -45.3 427.9 -45.3 L 427.9 -45.3 L 427.9 -45.3 Q 432.2 -45.3 434.6 -55.1 L 434.6 -55.1 L 434.6 -55.1 Q 435.3 -58 435.9 -61 Z" fill="url(#editing-gradient-gradient)"></path></g></g><style>text {
  font-size: 64px;
  font-family: Arial Black;
  dominant-baseline: central;
  text-anchor: middle;
}</style></svg>